<?xml version="1.0" encoding="UTF-8" standalone="no"?>
<!-- Created with Inkscape (http://www.inkscape.org/) -->

<svg
   version="1.1"
   id="svg119"
   width="1887"
   height="748"
   viewBox="0 0 1887 748"
   sodipodi:docname="nevergonnagiveyouup2.svg"
   inkscape:version="1.2 (dc2aeda, 2022-05-15)"
   xmlns:inkscape="http://www.inkscape.org/namespaces/inkscape"
   xmlns:sodipodi="http://sodipodi.sourceforge.net/DTD/sodipodi-0.dtd"
   xmlns="http://www.w3.org/2000/svg"
   xmlns:svg="http://www.w3.org/2000/svg">
  <defs
     id="defs123" />
  <sodipodi:namedview
     id="namedview121"
     pagecolor="#ffffff"
     bordercolor="#000000"
     borderopacity="0.25"
     inkscape:showpageshadow="2"
     inkscape:pageopacity="0.0"
     inkscape:pagecheckerboard="0"
     inkscape:deskcolor="#d1d1d1"
     showgrid="false"
     inkscape:zoom="0.31550802"
     inkscape:cx="947.67797"
     inkscape:cy="381.92373"
     inkscape:window-width="1388"
     inkscape:window-height="771"
     inkscape:window-x="0"
     inkscape:window-y="25"
     inkscape:window-maximized="0"
     inkscape:current-layer="g125" />
  <g
     inkscape:groupmode="layer"
     inkscape:label="Image"
     id="g125">
    <path
       style="fill:#000000"
       d="m 613,637 v -47 h -1 -1 v 11 11 h -1 -1 v -19 -19 h -1 -1 v -13 -13 h -1 -1 v -21 -21 h -1 -1 v 5 5 h -1 -1 v 27 27 h -1 -1 v 19 19 h -1 -1 v -37 -37 h -1 -1 v 7 7 h -1 -1 v -8 -8 h -1 -1 v 19 19 h -1 -1 v -14 -14 h -1 -1 v 7 7 h -1 -1 v 11 11 h -1 -1 v 8 8 h -1 -1 v 3 3 h -1 -1 v -25 -25 h -1 -1 v 4 4 h -1 -1 v -17 -17 h -2 -2 v -5 -5 h -1 -1 v 2 2 h -1 -1 v 9 9 h -1 -1 v 14 14 h -1 -1 v -9 -9 h -1 -1 v 6 6 h -1 -1 v 8 8 h -1 -1 v -12 -12 h -1 -1 v 43 43 h -1 -1 v 8 8 h -1 -1 v -30 -30 h -1 -1 v -3 -3 h -1 -1 v -38 -38 h -1 -1 v 4 4 h -1 -1 v 22 22 h -1 -1 v -24 -24 h -1 -1 v -8 -8 h -1 -1 v 19 19 h -2 -2 v -2 -2 h -1 -1 v -9 -9 h -1 -1 v -5 -5 h -1 -1 v 5 5 h -1 -1 v 17 17 h -1 -1 v -8 -8 h -1 -1 v 12 12 h -1 -1 v -8 -8 h -1 -1 v -10 -10 h -1 -1 v -13 -13 h -1 -1 v -4 -4 h -1 -1 v 15 15 h -1 -1 v -8 -8 h -1 -1 v 19 19 h -1 -1 v 17 17 h -1 -1 v -15 -15 h -1 -1 v -17 -17 h -1 -1 v 16 16 h -1 -1 v -6 -6 h -1 -1 v 36 36 h -1 -1 v 13 13 h -1 -1 v -34 -34 h -1 -1 v 29 29 h -1 -1 v -18 -18 h -1 -1 v -49 -49 h -1 -1 v -14 -14 h -1 -1 v 7 7 h -1 -1 v 8 8 h -1 -1 v -8 -8 h -1 -1 v 9 9 h -1 -1 v 22 22 h -1 -1 v -24 -24 h -1 -1 v 17 17 h -1 -1 v -6 -6 h -1 -1 v 9 9 h -1 -1 v 11 11 h -1 -1 v 4 4 h -1 -1 v -9 -9 h -1 -1 v 7 7 h -1 -1 v -6 -6 h -1 -1 v 5 5 h -1 -1 v 11 11 h -1 -1 v -18 -18 h -1 -1 v 3 3 h -1 -1 v -13 -13 h -1 -1 v 12 12 h -1 -1 v 18 18 h -1 -1 v 16 16 h -1 -1 v -23 -23 h -1 -1 v 10 10 h -1 -1 v 11 11 h -1 -1 v -9 -9 h -1 -1 v -8 -8 h -1 -1 v 3 3 h -1 -1 v -2 -2 h -1 -1 v -5 -5 h -1 -1 v -5 -5 h -0.57143 -0.57143 l -1.42857,1.42857 L 417,550.85714 V 567.42857 584 h -1 -1 v -15 -15 h -1 -1 v -4 -4 h -1 -1 v 29 29 h -1 -1 v -40 -40 h -1 -1 v 8 8 h -1 -1 v 5 5 h -1 -1 v 22 22 h -1 -1 v -26 -26 h -1 -1 v 27 27 h -1 -1 v -17 -17 h -1 -1 v 12 12 h -1 -1 v -30 -30 h -1 -1 v -16 -16 h -1 -1 v 19 19 h -1 -1 v -3 -3 h -1 -1 v 2 2 h -1 -1 v 18 18 h -1 -1 v 3 3 h -1 -1 v -13 -13 h -1 -1 v 19 19 h -1 -1 v -21 -21 h -1 -1 v 12 12 h -1 -1 v 13 13 h -1 -1 v -24 -24 h -1 -1 v 36 36 h -1 -1 v 5 5 h -1 -1 v -19 -19 h -1 -1 v -16 -16 h -1 -1 v 10 10 h -1 -1 v 9 9 h -1 -1 v -17 -17 h -1 -1 v 6 6 h -1 -1 v -2 -2 h -1 -1 v -9 -9 h -1 -1 v 29 29 h -1 -1 v -26 -26 h -1 -1 v -5 -5 h -1 -1 v -5 -5 h -1 -1 v -5 -5 h -1 -1 v -17 -17 h -1 -1 v 2 2 h -1 -1 v -16 -16 h -1 -1 v 9 9 h -1 -1 v -12 -12 h -1 -1 v 7 7 h -1 -1 v 25 25 h -1 -1 v 16 16 h -1 -1 v -18 -18 h -1 -1 v 31 31 h -1 -1 v 26 26 h -1 -1 v -27 -27 h -1 -1 v 18 18 h -1 -1 v -7 -7 h -1 -1 v -2 -2 h -1 -1 v -9 -9 h -1 -1 v 35 35 h -1 -1 v -44 -44 h -1 -1 v -20 -20 h -1 -1 v -16 -16 h -1 -1 v 20 20 h -1 -1 v 11 11 h -1 -1 v -8 -8 h -1 -1 v -6 -6 h -1 -1 v -3 -3 h -1 -1 v 10 10 h -1 -1 v 17 17 h -1 -1 v -18 -18 h -1 -1 v 9 9 h -1 -1 v 18 18 h -1 -1 v -25 -25 h -1 -1 v 15 15 h -1 -1 v -17 -17 h -1 -1 v -37 -37 h -1 -1 v 7 7 h -1 -1 v -1 -1 h -1 -1 v 6 6 h -1 -1 v 31.57143 31.57143 l -1.42857,1.42857 L 260.14286,550 H 259.57143 259 v -8 -8 h -1 -1 v -18 -18 h -1 -1 v 4 4 h -1 -1 v -6 -6 h -1 -1 v 45 45 h -1 -1 v 8 8 h -1 -1 v -12 -12 h -1 -1 v 43 43 h -1 -1 v -33 -33 h -1 -1 v -62 -62 h -1 -1 v 2 2 h -1 -1 v -3 -3 h -1 -1 v -2 -2 h -1 -1 v 5 5 h -1 -1 v 6 6 h -1 -1 v 10 10 h -1 -1 v 13 13 h -1 -1 v 3 3 h -1 -1 v -8 -8 h -2 -2 v -8.57143 -8.57143 L 217.57143,505.42857 216.14286,504 H 215.57143 215 v 4 4 h -1 -1 v -5 -5 h -1 -1 v -15 -15 h -1 -1 v 5 5 h -1 -1 v 2 2 h -1 -1 v 2.77924 2.77924 L 203,493 l -2,1.44152 V 509.22076 524 h -1 -1 v 17 17 h -1 -1 v -12 -12 h -1 -1 v 3 3 h -1 -1 v 33 33 h -1 -1 v -19 -19 h -1 -1 v -2 -2 h -1 -1 v 11 11 h -1 -1 v 10 10 h -1 -1 v -18 -18 h -1 -1 v -29 -29 h -1 -1 v 6 6 h -1 -1 v -2 -2 h -1 -1 v 16 16 h -1 -1 v 3 3 h -1 -1 v -4 -4 h -1 -1 v 5 5 h -1 -1 v 2 2 h -1 -1 v -18 -18 h -1 -1 v 15 15 h -1 -1 v 10 10 h -1 -1 v -8 -8 h -0.57143 -0.57143 l -1.42857,1.42857 L 155,564.85714 V 581.42857 598 h -1 -1 v -8 -8 h -1 -1 v 4 4 h -1 -1 v -24 -24 h -1 -1 v -11 -11 h -1 -1 v 8 8 h -1 -1 v -9 -9 h -1 -1 v 6 6 h -1 -1 v 12 12 h -1 -1 v -7 -7 h -1 -1 v 5 5 h -1 -1 v -12 -12 h -1 -1 v 23 23 h -1 -1 v 3 3 h -1 -1 v 18 18 h -1 -1 v -18 -18 h -1 -1 v 9 9 h -1 -1 v -5 -5 h -1 -1 v -14 -14 h -1 -1 v 6 6 h -1 -1 v -3 -3 h -1 -1 v 11 11 h -1 -1 v 5 5 h -1 -1 v -3 -3 h -1 -1 v -12 -12 h -1 -1 v -41 -41 h -1 -1 v 3 3 h -2 -2 v 17 17 h -1 -1 v 5 5 h -1 -1 v -11 -11 h -1 -1 v 11 11 h -1 -1 v -10 -10 h -1 -1 v 1 1 h -1 -1 v -8 -8 h -1 -1 v 34 34 h -1 -1 v -21 -21 h -1 -1 v 4 4 h -1 -1 v 9 9 h -1 -1 v -9 -9 h -1 -1 v 20 20 h -1 -1 v 5 5 H 72.428571 71.857143 L 70.428571,582.57143 69,581.14286 V 577.57143 574 h -1 -1 v 48 48 h -2 -2 v -41 -41 h -1 -1 v -7 -7 h -1 -1 v -34 -34 h -1 -1 v 1 1 h -1 -1 v -6 -6 h -1 -1 v 9 9 h -1 -1 v 34 34 h -1 -1 v 10 10 h -1 -1 v 8 8 h -1 -1 v -27 -27 h -1 -1 v -13 -13 h -1 -1 v -15 -15 h -1 -1 v 45 45 h -1 -1 v -11 -11 h -1 -1 v -17 -17 h -1 -1 v 7 7 h -1 -1 v 22 22 h -1 -1 v -69 -69 h -1 -1 v 16 16 h -1 -1 v 7 7 h -1 -1 v 7 7 h -1 -1 v 13.77924 13.77924 L 19,551 17,552.44152 V 555.22076 558 h -1 -1 v -18 -18 h -1 -1 v -20 -20 h -1 -1 v 9 9 H 10 9 v 36 36 H 8 7 v 21 21 H 6 5 v -1 -1 H 4 3 v 26 26 H 2.146736 1.293472 L 0.64673601,656.34912 0,648.69824 0.21375602,404.09912 0.42751204,159.5 0.74650714,170.75 1.0655022,182 H 2.0327511 3 V 120 58 h 1 1 v 5 5 h 1 1 v 82 82 h 1 1 v -5 -5 h 1 1 v 21 21 h 1 1 v -8 -8 h 1 1 v -22 -22 h 1 1 v -7 -7 h 1 1 v -13 -13 h 1 1 v 36 36 h 1 1 v 14 14 h 1 1 v -4 -4 h 1 1 v 10 10 h 1 1 v -66 -66 h 1 1 v 4 4 h 1 1 v 4.77924 4.77924 L 35,163 l 2,1.44152 V 180.22076 196 h 1 1 v 27 27 h 1 1 v -17 -17 h 1 1 v -26 -26 h 1 1 v 7 7 h 1 1 v -12 -12 h 1 1 v 10 10 h 1 1 v 24 24 h 1 1 v 9 9 h 1 1 v 10 10 h 1 1 v -4 -4 h 1 1 v -33 -33 h 1 1 v -35 -35 h 1 1 v -9 -9 h 1 1 v 12 12 h 1 1 v 23 23 h 1 1 v 24 24 h 1 1 v -11 -11 h 1 1 v -20 -20 h 1 1 v 33 33 h 1 1 v -4 -4 h 1 1 v -14 -14 h 1 1 v 25 25 h 1 1 v -16 -16 h 1 1 v 20 20 h 1 1 v -4 -4 h 1 1 v 21 21 h 1 1 v -20 -20 h 1 1 v -9 -9 h 1 1 v 14 14 h 1 1 v 12 12 h 2 2 v -5 -5 h 1 1 v -8 -8 h 1 1 v -22 -22 h 1 1 v -13 -13 h 1 1 v -20 -20 h 1 1 v 8 8 h 1 1 v 28 28 h 1 1 v -5 -5 h 1 1 v 8 8 h 1 1 v -4 -4 h 1 1 v -27 -27 h 1 1 v -24 -24 h 1 1 v 41 41 h 1 1 v -19 -19 h 1 1 v 20 20 h 1 1 v 11 11 h 1 1 v 3 3 h 1 1 v 8 8 h 1 1 v -15 -15 h 1 1 v 17 17 h 1 1 v -12 -12 h 1 1 v 5 5 h 1 1 v -2 -2 h 1 1 v 22 22 h 1 1 v -36 -36 h 1 1 v -7 -7 h 1 1 v 4 4 h 1 1 v -11 -11 h 1 1 v 11 11 h 1 1 v 10 10 h 1 1 v -8 -8 h 1 1 v -4 -4 h 1 1 v 14 14 h 1 1 v -8 -8 h 1 1 v -14 -14 h 1 1 v 3 3 h 1 1 v -10 -10 h 1 1 v 12 12 h 1 1 v 29 29 h 1 1 v 6 6 h 1 1 v -20 -20 h 1 1 v -23 -23 h 1 1 v 13 13 h 1 1 v -23 -23 h 1 1 v 10 10 h 1 1 v 16 16 h 1 1 v 31 31 h 1 1 v -3 -3 h 1 1 v 5 5 h 1 1 v -15 -15 h 1 1 v -8 -8 h 1 1 v 10 10 h 1 1 v 27 27 h 1 1 v 5 5 h 2 2 v -15 -15 h 1 1 v -18 -18 h 1 1 v 3 3 h 1 1 v 25 25 h 0.57143 0.57143 l 1.42857,-1.42857 L 221,279.14286 V 262.57143 246 h 1 1 v 10 10 h 1 1 v -11 -11 h 1 1 v 5 5 h 1 1 v 23 23 h 1 1 v -20 -20 h 1 1 v 18 18 h 1 1 v -3 -3 h 1 1 v -6 -6 h 1 1 v 6 6 h 1 1 v -83 -83 h 1 1 v 12 12 h 1 1 V 117 86 h 1 1 v 37 37 h 1 1 v 28 28 h 1 1 v -10 -10 h 1 1 v 34 34 h 1 1 v -18 -18 h 1 1 v 5 5 h 1 1 v -21 -21 h 1 1 v 3 3 h 1 1 v 37 37 h 1 1 v 10 10 h 1 1 v -2 -2 h 1 1 v -2 -2 h 1 1 v -25 -25 h 1 1 v -28 -28 h 1 1 v -4 -4 h 1 1 v 20 20 h 1 1 v -25 -25 h 1 1 v 35 35 h 1 1 v -2 -2 h 1 1 v 6 6 h 1 1 v -16 -16 h 1 1 v -2 -2 h 1 1 v -22 -22 h 1 1 v 40 40 h 1 1 v -4 -4 h 1 1 v 7 7 h 1 1 v -14 -14 h 2 2 v -32 -32 h 1 1 v 8 8 h 1 1 v -16 -16 h 1 1 v -13 -13 h 1 1 v 25 25 h 1 1 v 11 11 h 1 1 v -21 -21 h 1 1 v -3 -3 h 1 1 v 32 32 h 1 1 v 18 18 h 1 1 v 16 16 h 1 1 v -11 -11 h 1 1 v 11 11 h 1 1 v -4 -4 h 1 1 v 15 15 h 1 1 v -29 -29 h 1 1 v 4.57143 4.57143 l 1.42857,1.42857 L 337.85714,246 H 338.42857 339 v -24 -24 h 1 1 v -2 -2 h 1 1 v -22 -22 h 1 1 v 28 28 h 1 1 v -5 -5 h 1 1 v -23 -23 h 1 1 v 30 30 h 1 1 v -33 -33 h 1 1 v 22 22 h 1 1 v 17 17 h 1 1 v -20 -20 h 1 1 v -7.77924 -7.77924 L 363,165 l 2,-1.44152 V 153.77924 144 h 1 1 v 16 16 h 1 1 v -11 -11 h 1 1 v 4.57143 4.57143 l 1.42857,1.42857 L 373.85714,166 H 374.42857 375 v -11 -11 h 1 1 v 21 21 h 1 1 v 7 7 h 1 1 v -4.57143 -4.57143 l 1.42857,-1.42857 L 383.85714,188 H 384.42857 385 v 28 28 h 1 1 v -4 -4 h 1 1 v 8 8 h 1 1 v -20 -20 h 1 1 v -18 -18 h 1 1 v -26 -26 h 1 1 v 26 26 h 1 1 v -7 -7 h 1 1 v -8 -8 h 1 1 v 8 8 h 1 1 v -6 -6 h 1 1 V 121 92 h 1 1 v 41 41 h 1 1 v 16 16 h 1 1 v 8 8 h 1 1 v -21 -21 h 1 1 v -10 -10 h 1 1 v 17.77924 17.77924 l 2,1.44152 2,1.44152 V 219.22076 240 h 1 1 v -18 -18 h 1 1 v -2 -2 h 1 1 v -11 -11 h 1 1 v -1.57143 -1.57143 l 1.42857,-1.42857 L 433.85714,172 H 434.42857 435 v 18 18 h 1 1 v -2 -2 h 1 1 v -12 -12 h 1 1 v 8 8 h 1 1 v 21 21 h 1 1 v -6 -6 h 1 1 v -9 -9 h 1 1 v -5 -5 h 1 1 v -2 -2 h 1 1 v 22 22 h 1 1 v -11 -11 h 1 1 v -12 -12 h 1 1 v 21 21 h 1 1 v -21 -21 h 0.57143 0.57143 l 1.42857,1.42857 L 465,194.85714 V 226.42857 258 h 1 1 v -4 -4 h 1 1 v 6 6 h 1 1 v -15 -15 h 0.57143 0.57143 l 1.42857,1.42857 L 475,234.85714 V 257.42857 280 h 1 1 v -12 -12 h 1 1 v 15 15 h 1 1 v 2 2 h 1 1 v 6 6 h 1 1 v -34 -34 h 1 1 v -38 -38 h 1 1 v -4 -4 h 1 1 v 8 8 h 1 1 v 11 11 h 1 1 v 18 18 h 1 1 v 3 3 h 1 1 v -6 -6 h 1 1 v 8 8 h 1 1 v -16 -16 h 1 1 v 2 2 h 1 1 v 6.77924 6.77924 l 2,1.44152 2,1.44152 V 244.22076 266 h 1 1 v -3 -3 h 1 1 v -12 -12 h 1 1 v -7 -7 h 1 1 v -23 -23 h 1 1 v 11 11 h 1 1 v -8 -8 h 1 1 v 38 38 h 1 1 v 2 2 h 1 1 v -25 -25 h 1 1 v 3 3 h 2 2 v -1 -1 h 1 1 v 12 12 h 1 1 v 3 3 h 1 1 v -4 -4 h 1 1 v 2 2 h 1 1 v 2 2 h 1 1 v -18 -18 h 1 1 v -19 -19 h 1 1 v -2 -2 h 1 1 v -19 -19 h 1 1 v 17 17 h 1 1 v 16 16 h 1 1 v 19 19 h 1 1 v -35 -35 h 1 1 v 18 18 h 1 1 v 9 9 h 1 1 v -2 -2 h 1 1 v 15 15 h 1 1 v 6 6 h 1 1 v -9 -9 h 1 1 v -10 -10 h 1 1 v -11 -11 h 1 1 v -2 -2 h 1 1 v 10 10 h 1 1 v -28 -28 h 1 1 v 24 24 h 1 1 v -4 -4 h 1 1 v -10 -10 h 1 1 v 20 20 h 1.91667 1.91666 l 0.58334,1.25 0.58333,1.25 0.58333,-1.25 0.58334,-1.25 H 598.08333 599 v 13 13 h 1 1 v -12 -12 h 1 1 v 23 23 h 1 1 v -29 -29 h 1 1 v 3 3 h 1 1 v -29 -29 h 1 1 v -15 -15 h 1 1 v -3 -3 h 1 1 v 19 19 h 1 1 v 10 10 h 1 1 v 31 31 h 1 1 v -13 -13 h 1 1 v 9 9 h 2 2 v 5.77924 5.77924 l 2,1.44152 2,1.44152 V 258.22076 272 h 1 1 v -9 -9 h 1 1 v -12 -12 h 1 1 v 4 4 h 1 1 v -30 -30 h 1 1 v 4 4 h 1 1 v 4 4 h 1 1 v 21 21 h 1 1 v 5 5 h 1 1 v -15 -15 h 1 1 v -8 -8 h 1 1 v 2 2 h 1 1 v 5 5 h 1 1 v -9 -9 h 1 1 v 18 18 h 1 1 v -3 -3 h 1 1 v -7 -7 h 1 1 v 2 2 h 1 1 v -2 -2 h 1 1 v -7 -7 h 1 1 v -9 -9 h 1 1 v -24 -24 h 1 1 v 12 12 h 1 1 v -19 -19 h 1 1 v 30 30 h 1 1 v 16 16 h 1 1 v 15.77924 15.77924 l 2,1.44152 2,1.44152 V 249.22076 254 h 1 1 v -16 -16 h 1 1 v 13 13 h 1 1 v -8 -8 h 1 1 v -6 -6 h 1 1 v 14 14 h 1 1 v -27 -27 h 1 1 v -10 -10 h 1 1 v -4 -4 h 1 1 v -5 -5 h 1 1 v 20 20 h 1 1 v 14 14 h 1 1 v -6 -6 h 1 1 v -29 -29 h 1 1 v 26 26 h 2 2 v 16 16 h 1 1 v -4 -4 h 1 1 v 7 7 h 1 1 v 30 30 h 1 1 v 3 3 h 1 1 v -66 -66 h 1 1 v -21 -21 h 1 1 v -13 -13 h 1 1 v 35 35 h 1 1 v 14 14 h 1 1 v 11 11 h 1 1 v 19 19 h 1 1 v 12 12 h 1 1 v -11 -11 h 1 1 v -2 -2 h 1 1 v 13 13 h 1 1 v 8 8 h 1 1 v -2 -2 h 1 1 v -5 -5 h 1 1 v 12 12 h 1 1 v -34 -34 h 1 1 v -9 -9 h 1 1 v 7 7 h 1 1 v -8 -8 h 1 1 v -9 -9 h 1 1 v 19 19 h 1 1 v 21 21 h 1 1 v -10 -10 h 1 1 v -10 -10 h 1 1 v -22 -22 h 1 1 v -4 -4 h 1 1 v 3 3 h 1 1 v 13 13 h 1 1 v -24 -24 h 1 1 v 19 19 h 1 1 v -12 -12 h 1 1 v -36 -36 h 1 1 v 31 31 h 1 1 v -6 -6 h 1 1 v 2 2 h 1 1 v -17 -17 h 1 1 v -3 -3 h 1 1 v 29 29 h 1 1 v -28 -28 h 1 1 v -2 -2 h 1 1 v 30 30 h 1 1 v 9 9 h 1 1 v 2 2 h 1 1 v -17 -17 h 1 1 v -13 -13 h 1 1 v -2 -2 h 1 1 v -10 -10 h 1 1 v 25.77924 25.77924 l 2,1.44152 2,1.44152 V 204.22076 218 h 1 1 v 12 12 h 1 1 v 12 12 h 1 1 v -9 -9 h 1 1 v 6 6 h 1 1 v -9 -9 h 1 1 v 14 14 h 1 1 v -12 -12 h 1 1 v -17 -17 h 1 1 v -2 -2 h 1 1 v -13 -13 h 1 1 v 26 26 h 1 1 V 163 92 h 1 1 v 39 39 h 1 1 v -11 -11 h 1 1 v 3 3 h 2 2 v 20 20 h 1 1 v 16 16 h 1 1 v -22 -22 h 1 1 v 6 6 h 1 1 v -2 -2 h 1 1 v -10 -10 h 1 1 v 13 13 h 1 1 v 14 14 h 1 1 v -7 -7 h 1 1 v 13 13 h 1 1 v -20 -20 h 1 1 v 20 20 h 1 1 v -11 -11 h 1 1 v -14.57143 -14.57143 l 1.42857,-1.42857 L 889.85714,182 H 890.42857 891 v 22 22 h 1 1 v -9 -9 h 1 1 v 9 9 h 1 1 v 15 15 h 1 1 v -15 -15 h 1 1 v 3 3 h 1 1 v 3 3 h 1 1 v 8 8 h 1 1 v 5 5 h 1 1 v 13 13 h 1 1 v 4 4 h 1 1 v -35 -35 h 1 1 v -3 -3 h 1 1 v -12 -12 h 1 1 v 10 10 h 1 1 v 19 19 h 1 1 v 17 17 h 1 1 v -5 -5 h 1 1 v 12 12 h 1 1 v -5 -5 h 0.57143 0.57143 l 1.42857,1.42857 L 933,296.85714 V 305.42857 314 h 1 1 v 5 5 h 1 1 v -8 -8 h 1 1 v 1 1 h 1 1 v -3 -3 h 1 1 v -33 -33 h 1 1 v 2 2 h 1 1 v -56 -56 h 1 1 v 43 43 h 1 1 v 10 10 h 1 1 v 11 11 h 1 1 v 2 2 h 1 1 v 4 4 h 1 1 v -2 -2 h 1 1 v 3 3 h 1 1 v -6 -6 h 1 1 v 2 2 h 1 1 v 4 4 h 1 1 v 5 5 h 1 1 v -28 -28 h 1 1 v -62 -62 h 1 1 v 29 29 h 1 1 v -3 -3 h 1 1 v -18 -18 h 1 1 V 108 98 h 1 1 v 35 35 h 1 1 v 8 8 h 1 1 v 22 22 h 1 1 v 5 5 h 1 1 v -14 -14 h 1 1 v -9 -9 h 1 1 v 10 10 h 1 1 v 6 6 h 1 1 v 15.57143 15.57143 l 1.4286,1.42857 1.4285,1.42857 h 0.5715 0.5714 v -46 -46 h 1 1 v 12 12 h 1 1 v 7.77924 7.77924 l 2,1.44152 2,1.44152 V 223.22076 238 h 1 1 v 3 3 h 1 1 v -19 -19 h 1 1 v -5 -5 h 2 2 v 9 9 h 1 1 v -17 -17 h 1 1 v 12 12 h 1 1 v 37 37 h 1 1 v -29 -29 h 1 1 v 23 23 h 1 1 v -38 -38 h 1 1 v -17 -17 h 1 1 v 5 5 h 1 1 v -12 -12 h 1 1 V 116 90 h 1 1 v 55 55 h 1 1 v 5 5 h 1 1 v -6 -6 h 1 1 v 6 6 h 1 1 v -17 -17 h 1 1 v 1 1 h 1 1 v -11 -11 h 1 1 v 41 41 h 1 1 v 6 6 h 1 1 v 5 5 h 1 1 v 5 5 h 1 1 v -30 -30 h 0.5714 0.5715 l 1.4285,1.42857 1.4286,1.42857 V 223.42857 234 h 1 1 v -9 -9 h 1 1 v 21 21 h 1 1 v 2 2 h 1 1 v -10 -10 h 1 1 v -4 -4 h 1 1 v -19 -19 h 1 1 v -36 -36 h 1 1 v 18 18 h 1 1 v -14 -14 h 1 1 v 25 25 h 1 1 v -4 -4 h 1 1 v 14 14 h 1 1 v -25 -25 h 1 1 v 2 2 h 1 1 v -12 -12 h 1 1 v 15 15 h 1 1 v -20 -20 h 1 1 v 18 18 h 1 1 v 33 33 h 1 1 v 9 9 h 1 1 v 3.57143 3.57143 l 1.4286,1.42857 1.4285,1.42857 h 0.5715 0.5714 v -2 -2 h 1 1 v 14 14 h 0.5714 0.5715 l 1.4285,-1.42857 1.4286,-1.42857 V 264.57143 256 h 1 1 v -2 -2 h 1 1 v -28 -28 h 1 1 v -10 -10 h 1 1 v -18 -18 h 1 1 v 8 8 h 1 1 v 9 9 h 1 1 v -6 -6 h 1 1 v 18 18 h 1 1 v -11 -11 h 1 1 v 14 14 h 1 1 v 21 21 h 1 1 v -49 -49 h 1 1 v 33 33 h 1 1 v 6 6 h 1 1 v -14 -14 h 2 2 v 2 2 h 1 1 v -14 -14 h 1 1 v -11 -11 h 1 1 v 25 25 h 1 1 v -43 -43 h 1 1 v 11 11 h 1 1 v -9 -9 h 1 1 v 11 11 h 1 1 V 119 96 h 1 1 v 12 12 h 1 1 v 44 44 h 1 1 v 6 6 h 1 1 v 14 14 h 1 1 v 17 17 h 1 1 v -19 -19 h 1 1 v -3 -3 h 1 1 v -27 -27 h 0.5714 0.5715 l 1.4285,1.42857 1.4286,1.42857 V 198.42857 210 h 1 1 v 13 13 h 1 1 v 16 16 h 1 1 v 9 9 h 1 1 v -9 -9 h 1 1 v -4 -4 h 1 1 v 10 10 h 1 1 v 2 2 h 1 1 v -8.57143 -8.57143 l 1.4286,-1.42857 1.4285,-1.42857 h 0.5715 0.5714 v 20.57143 20.57143 l 1.4286,1.42857 1.4285,1.42857 h 0.5715 0.5714 v -15 -15 h 1 1 v -52.77924 -52.77924 l 2,-1.44152 2,-1.44152 V 152.77924 136 h 1 1 v 11 11 h 1 1 v 9 9 h 1 1 v 28 28 h 1 1 v -4 -4 h 1 1 v -12 -12 h 1 1 v 21 21 h 1 1 v -14 -14 h 1 1 v -3 -3 h 1 1 v 14 14 h 1 1 v 21 21 h 1 1 v -4 -4 h 1 1 v -12 -12 h 1 1 v -31 -31 h 1 1 v 4 4 h 1 1 v -7 -7 h 1 1 v 21 21 h 1 1 v 20 20 h 1 1 v -3 -3 h 1 1 v -16 -16 h 1 1 v 8 8 h 1 1 v -15 -15 h 1 1 v 2 2 h 1 1 v -12 -12 h 1 1 v -4 -4 h 1 1 v 13 13 h 2 2 v -6 -6 h 1 1 v 12 12 h 1 1 v -40 -40 h 1 1 v 13 13 h 1 1 v 9 9 h 1 1 v -35 -35 h 1 1 v 31 31 h 1 1 v -10 -10 h 1 1 v 16 16 h 1 1 v 3 3 h 1 1 v -13 -13 h 1 1 v -17 -17 h 1 1 v 4 4 h 1 1 v -2 -2 h 1 1 v 6 6 h 1 1 v 6 6 h 1 1 v 25 25 h 1 1 v -2 -2 h 1 1 v -20 -20 h 1 1 v -20 -20 h 1 1 v 18 18 h 1 1 v -20 -20 h 1 1 v 19 19 h 2 2 v -4 -4 h 1 1 v 17 17 h 1 1 v 26 26 h 1 1 v 3 3 h 1 1 v 24 24 h 1 1 v -26 -26 h 1 1 v -4 -4 h 1 1 v -7 -7 h 1 1 v -43 -43 h 1 1 v 13 13 h 1 1 v -15 -15 h 1 1 v 30 30 h 1 1 v -21 -21 h 1 1 v 18 18 h 1 1 v 12 12 h 1 1 v -8 -8 h 1 1 v 12 12 h 1 1 v 31.54545 31.54546 l 2.4545,2.45454 2.4546,2.45455 h 0.5454 0.5455 v -7 -7 h 1 1 v -3 -3 h 1 1 v -25 -25 h 1 1 v -35 -35 h 1 1 v 13 13 h 1 1 v 17 17 h 1 1 v -28 -28 h 1 1 v 25 25 h 1 1 v -24 -24 h 1 1 v 43 43 h 1 1 v 3 3 h 1 1 v -21 -21 h 1 1 v -14 -14 h 1 1 v 20 20 h 1 1 v -10 -10 h 1 1 v -9 -9 h 2 2 v 13 13 h 1 1 v 13 13 h 2 2 v -25 -25 h 1 1 v -16 -16 h 1 1 v 6 6 h 1 1 v 17 17 h 1 1 v -19 -19 h 1 1 v 33 33 h 1 1 v -5 -5 h 1 1 v 7 7 h 1 1 v -16 -16 h 1 1 v -15 -15 h 1 1 v 23 23 h 1 1 v 5 5 h 1 1 v -10 -10 h 2 2 v 3 3 h 1 1 v -3 -3 h 1 1 v -15 -15 h 1 1 v 28 28 h 1 1 v -5.57143 -5.57143 l 1.4286,-1.42857 1.4285,-1.42857 h 0.5715 0.5714 v 4 4 h 1 1 v 10 10 h 1 1 v -21 -21 h 1 1 v 23 23 h 1 1 v 3 3 h 1 1 v -3 -3 h 1 1 v -4 -4 h 1 1 v 7 7 h 1 1 v -4 -4 h 1 1 v -55 -55 h 1 1 v 13 13 h 1 1 v -15 -15 h 1 1 v 13 13 h 1 1 v 30 30 h 1 1 v -5 -5 h 1 1 v 30 30 h 1 1 v -10 -10 h 1 1 v -2 -2 h 1 1 v -7 -7 h 1 1 v -3 -3 h 1 1 v -2 -2 h 1 1 v 10 10 h 1 1 v 28 28 h 1 1 v -17 -17 h 1 1 v -13 -13 h 1 1 v -15 -15 h 1 1 v 12.77924 12.77924 l 2,1.44152 2,1.44152 V 233.22076 242 h 1 1 v -12 -12 h 1 1 v 7 7 h 1 1 v -4 -4 h 1 1 v 6 6 h 1 1 v -10 -10 h 1 1 v 19 19 h 1 1 v -8 -8 h 1 1 v 8 8 h 1 1 v -22 -22 h 1 1 v 5 5 h 1 1 v -25 -25 h 1 1 v 11 11 h 1 1 v -23 -23 h 1 1 v -15 -15 h 1 1 V 98 80 h 1 1 v 49 49 h 1 1 v 5 5 h 1 1 v 13 13 h 1 1 v 23 23 h 1 1 v -65 -65 h 1 1 v 42 42 h 1 1 v 21 21 h 1 1 v -28 -28 h 1 1 v -18 -18 h 1 1 v 27 27 h 1 1 v -14 -14 h 1 1 v -19 -19 h 1 1 v 26 26 h 1 1 v -22 -22 h 1 1 v 24 24 h 1 1 v -6 -6 h 1 1 v -16 -16 h 1 1 v 10 10 h 1 1 v -34 -34 h 1 1 v 40 40 h 1 1 v -18 -18 h 2 2 v 30 30 h 1 1 v 10 10 h 1 1 v -26 -26 h 1 1 v 21 21 h 1 1 v -34 -34 h 1 1 V 130 98 h 1 1 v 8 8 h 1 1 v 17 17 h 1 1 v -15 -15 h 1 1 v 26 26 h 1 1 v 20 20 h 1 1 v 8 8 h 1 1 v 3 3 h 1 1 v 2 2 h 1 1 v -7 -7 h 3 3 v -7 -7 h 1 1 v 3 3 h 1 1 v -2 -2 h 1 1 v -23 -23 h 1 1 v 26 26 h 1 1 v -28 -28 h 1 1 v 20 20 h 1 1 v 2 2 h 1 1 v 8 8 h 1 1 v -2 -2 h 1 1 v -2 -2 h 1 1 v -4 -4 h 1 1 v 12 12 h 1 1 v -5 -5 h 1 1 v -2 -2 h 1 1 v 7 7 h 1 1 v 7 7 h 1 1 v -23 -23 h 1 1 v 1 1 h 1 1 v -10 -10 h 1 1 v -2 -2 h 1 1 v 24 24 h 1 1 v -6 -6 h 1 1 v -4 -4 h 1 1 v -12 -12 h 1 1 v 16 16 h 1 1 v 11 11 h 1 1 v -30 -30 h 1 1 v 30 30 h 1 1 v -8 -8 h 1 1 v -6 -6 h 1 1 v 16 16 h 1 1 v -18 -18 h 1 1 v -29 -29 h 1 1 v 28 28 h 1 1 v -6 -6 h 1 1 v 9 9 h 1 1 v -2 -2 h 1 1 v -3 -3 h 1 1 v -8 -8 h 1 1 v 18 18 h 1 1 v 3 3 h 1 1 v 12 12 h 1 1 v 2 2 h 1 1 v -24 -24 h 1 1 v 31 31 h 1 1 v -13 -13 h 1 1 v 7 7 h 1 1 v -43 -43 h 1 1 v -17 -17 h 1 1 v 9 9 h 1 1 v 33 33 h 1 1 v -5 -5 h 1 1 v 28 28 h 1 1 v 10 10 h 1 1 v -1 -1 h 2 2 v 12 12 h 1 1 v 4 4 h 1 1 v -8 -8 h 1 1 v 6 6 h 1 1 v 3 3 h 1 1 v -26 -26 h 1 1 v -20 -20 h 1 1 v -20 -20 h 1 1 v 5 5 h 1 1 v 6 6 h 1 1 v 5 5 h 1 1 v -15 -15 h 1 1 v 6 6 h 1 1 v 10 10 h 1 1 v 11 11 h 1 1 v -1 -1 h 1 1 v 15 15 h 1 1 v -17 -17 h 1 1 v 14 14 h 1 1 v -2 -2 h 1 1 v -7 -7 h 1 1 v -32 -32 h 1 1 v -3 -3 h 1 1 v -18 -18 h 1 1 v -10 -10 h 1 1 v 15 15 h 1 1 v 28 28 h 1 1 v -6 -6 h 1 1 v -19 -19 h 1 1 v 23 23 h 1 1 v -5 -5 h 1 1 v 6 6 h 1 1 v 4 4 h 1 1 v -11 -11 h 3 3 v -17 -17 h 1 1 v 17.57143 17.57143 l 1.4286,1.42857 1.4285,1.42857 h 0.5715 0.5714 v -14 -14 h 1 1 v 23 23 h 1 1 v 7 7 h 1 1 v 21 21 h 1 1 v -14 -14 h 1 1 v -38 -38 h 1 1 v 31 31 h 1 1 v 8 8 h 1 1 v 9 9 h 1 1 v 8 8 h 1 1 v -7 -7 h 1 1 v 3 3 h 1 1 v -10 -10 h 1 1 v -58 -58 h 1 1 v -3 -3 h 1 1 v 21 21 h 1 1 v -5 -5 h 1 1 v 10 10 h 1 1 v 24 24 h 1 1 v -15 -15 h 1 1 v -13 -13 h 1 1 v 18 18 h 1 1 v 15 15 h 1 1 v -9 -9 h 1 1 v -9 -9 h 2 2 v 14 14 h 1 1 v 8 8 h 1 1 v -23 -23 h 1 1 v 12 12 h 1 1 v 10 10 h 1 1 v -18 -18 h 1 1 v 2 2 h 1 1 v -6 -6 h 1 1 v 14 14 h 1 1 v -6 -6 h 1 1 v -6 -6 h 1 1 v 17 17 h 1 1 v 25 25 h 1 1 v -3 -3 h 1 1 v -29 -29 h 1 1 v -8 -8 h 1 1 v 25 25 h 1 1 v 129 129 h -1 -1 v 2 2 h -1 -1 v -12 -12 h -1 -1 v 3 3 h -1 -1 v -13 -13 h -1 -1 v 20 20 h -1 -1 v 25 25 h -1 -1 v 4 4 h -1 -1 v 11 11 h -1 -1 v -26 -26 h -1 -1 v 2 2 h -1 -1 v -7 -7 h -1 -1 v 17 17 h -1 -1 v -2.57143 -2.57143 l -1.4286,-1.42857 L 1858.1429,552 H 1857.5714 1857 v 16 16 h -1 -1 v -17 -17 h -1 -1 v 8 8 h -1 -1 v -6 -6 h -2 -2 v -15 -15 h -1 -1 v 7 7 h -1 -1 v 16 16 h -1 -1 v 4 4 h -1 -1 v -23 -23 h -1 -1 v 45 45 h -1 -1 v 3 3 h -1 -1 v -16 -16 h -1 -1 v 17 17 h -1 -1 v 17 17 h -1 -1 v -75 -75 h -1 -1 v -18 -18 h -1 -1 v 4 4 h -1 -1 v 10 10 h -1 -1 v -11 -11 h -1 -1 v 32 32 h -1 -1 v -5 -5 h -1 -1 v 10 10 h -1 -1 v -15 -15 h -1 -1 v 1 1 h -1 -1 v -10 -10 h -1 -1 v 15 15 h -1 -1 v 22 22 h -1 -1 v 7 7 h -1 -1 v -19 -19 h -1 -1 v -36 -36 h -1 -1 v 31 31 h -1 -1 v -9 -9 h -1 -1 v -6 -6 h -1 -1 v 8 8 h -1 -1 v 8 8 h -1 -1 v -4 -4 h -1 -1 v -6 -6 h -1 -1 v 5 5 h -1 -1 v 11 11 h -1 -1 v -11 -11 h -1 -1 v 51 51 h -1 -1 v -22 -22 h -1 -1 v -2 -2 h -1 -1 v 17 17 h -1 -1 v -45 -45 h -1 -1 v -8.77924 -8.77924 L 1763,521 l -2,-1.44152 V 500.77924 482 h -1 -1 v 19 19 h -1 -1 v -20 -20 h -1 -1 v 25 25 h -1 -1 v 8 8 h -1 -1 v -11 -11 h -1 -1 v 29 29 h -1 -1 v -15 -15 h -1 -1 v 3 3 h -1 -1 v 21 21 h -1 -1 v -9 -9 h -1 -1 v -20 -20 h -1 -1 v -16 -16 h -1 -1 v -26 -26 h -1 -1 v -10 -10 h -1 -1 v 4 4 h -1 -1 v 6 6 h -1 -1 v -5 -5 h -1 -1 v 3 3 h -1 -1 v 10 10 h -1 -1 v 5 5 h -1 -1 v 9 9 h -1 -1 v -10 -10 h -1 -1 v 23 23 h -1 -1 v 42 42 h -1 -1 v -14 -14 h -1 -1 v 6 6 h -1 -1 v 3 3 h -1 -1 v -42 -42 h -1 -1 v -19 -19 h -1 -1 v 12 12 h -1 -1 v -2 -2 h -1 -1 v 25 25 h -1 -1 v -16 -16 h -1 -1 v 38 38 h -1 -1 v -9 -9 h -1 -1 v 17 17 h -1 -1 v -13 -13 h -1 -1 v -11 -11 h -1 -1 v -10 -10 h -1 -1 v 4 4 h -1 -1 v 4 4 h -1 -1 v 8 8 h -1 -1 v 7 7 h -1 -1 v -33 -33 h -1 -1 v 23 23 h -1 -1 v -10 -10 h -2 -2 v -10 -10 h -1 -1 v 21 21 h -1 -1 v 4 4 h -1 -1 v 12 12 h -1 -1 v -31 -31 h -1 -1 v 36 36 h -1 -1 v -31 -31 h -1 -1 v 26 26 h -1 -1 v -22 -22 h -1 -1 v 15 15 h -1 -1 v -18 -18 h -1 -1 v 11 11 h -1 -1 v -17 -17 h -1 -1 v 13 13 h -2 -2 v -17 -17 h -1 -1 v 15 15 h -1 -1 v -3 -3 h -1 -1 v -9 -9 h -1 -1 v 11 11 h -1 -1 v 7 7 h -1 -1 v -13 -13 h -1 -1 v 6 6 h -1 -1 v -16 -16 h -1 -1 v 4 4 h -1 -1 v 19 19 h -1 -1 v -23 -23 h -1 -1 v 9 9 h -1 -1 v 10 10 h -1 -1 v -33 -33 h -1 -1 v -9 -9 h -1 -1 v 26 26 h -1 -1 v 13 13 h -1 -1 v -16 -16 h -1 -1 v 27 27 h -2 -2 v 5 5 h -1 -1 v 11 11 h -1 -1 v -5 -5 h -1 -1 v -5 -5 h -1 -1 v -2 -2 h -1 -1 v -27 -27 h -1 -1 v -12 -12 h -1 -1 v -5 -5 h -1 -1 v 20 20 h -1 -1 v 10 10 h -1 -1 v 5 5 h -2 -2 v -29 -29 h -1 -1 v 4.77924 4.77924 l -2,1.44152 -2,1.44152 V 540.22076 554 h -1 -1 v -6 -6 h -1 -1 v 19 19 h -1 -1 v -20 -20 h -1 -1 v 10 10 h -1 -1 v -6 -6 h -1 -1 v -7 -7 h -1 -1 v 21 21 h -1 -1 v -13 -13 h -1 -1 v -14 -14 h -0.5714 -0.5715 l -1.4285,1.42857 -1.4286,1.42857 V 534.42857 544 h -1 -1 v 10 10 h -1 -1 v -20 -20 h -1 -1 v 7.77924 7.77924 l -2,1.44152 -2,1.44152 V 566.22076 590 h -1 -1 v 12 12 h -1 -1 v -13 -13 h -1 -1 v -15 -15 h -1 -1 v 6 6 h -1 -1 v -7 -7 h -1 -1 v -18 -18 h -1 -1 v 39 39 h -1 -1 v -48 -48 h -1 -1 v 8 8 h -1 -1 v 24 24 h -1 -1 v -8 -8 h -1 -1 v -18 -18 h -1 -1 v 4 4 h -0.5714 -0.5715 l -1.4285,-1.42857 L 1501,519.14286 V 516.57143 514 h -1 -1 v 5 5 h -1 -1 v 26 26 h -1 -1 v -10 -10 h -1 -1 v -12 -12 h -1 -1 v -25 -25 h -1 -1 v 21 21 h -1 -1 v 14 14 h -1 -1 v -12 -12 h -1 -1 v 16 16 h -1 -1 v 7 7 h -1 -1 v -24 -24 h -1 -1 v 7 7 h -1 -1 v -9 -9 h -1 -1 v 2 2 h -1 -1 v 18 18 h -1 -1 v 25 25 h -1 -1 v -14 -14 h -0.5714 -0.5715 l -1.4285,1.42857 -1.4286,1.42857 V 613.42857 640 h -1 -1 v -71 -71 h -1 -1 v 14 14 h -1 -1 v -13 -13 h -1 -1 v 3 3 h -1 -1 v 1.77924 1.77924 l -2,1.44152 -2,1.44152 V 537.22076 562 h -1 -1 v -19 -19 h -1 -1 v 16 16 h -1 -1 v -6 -6 h -0.5714 -0.5715 l -1.4285,1.42857 -1.4286,1.42857 V 553.42857 560 h -1 -1 v 16 16 h -1 -1 v -32 -32 h -1 -1 v 15 15 h -1 -1 v -6 -6 h -1 -1 v -7 -7 h -1 -1 v 5 5 h -1 -1 v 8 8 h -1 -1 v 14 14 h -1 -1 v -15 -15 h -1 -1 v 25 25 h -1 -1 v -38 -38 h -1 -1 v 22 22 h -1 -1 v -10 -10 h -1 -1 v 2 2 h -1 -1 v -3 -3 h -1 -1 v 8 8 h -1 -1 v 17 17 h -1 -1 v -29 -29 h -1 -1 v -2 -2 h -1 -1 v 20 20 h -1 -1 v -15 -15 h -1 -1 v 7 7 h -0.5714 -0.5715 l -1.4285,-1.42857 L 1391,561.14286 V 552.57143 544 h -1 -1 v -6 -6 h -1 -1 v -8 -8 h -1 -1 v 14 14 h -1 -1 v 13 13 h -1 -1 v 4 4 h -1 -1 v 21 21 h -1 -1 v -33 -33 h -1 -1 v 17 17 h -1 -1 v -7 -7 h -1 -1 v -7 -7 h -1 -1 v -36 -36 h -1 -1 v 9 9 h -0.5714 -0.5715 l -1.4285,-1.42857 L 1363,503.14286 V 498.57143 494 h -0.5714 -0.5715 l -1.4285,1.42857 -1.4286,1.42857 V 505.42857 514 h -1 -1 v 12 12 h -1 -1 v 7 7 h -1 -1 v 15 15 h -1 -1 v -31 -31 h -1 -1 v 37 37 h -1 -1 v 10.57143 10.57143 l -1.4286,1.42857 L 1344.1429,618 H 1343.5714 1343 v -43 -43 h -1 -1 v 27 27 h -1 -1 v -46 -46 h -1 -1 v 1 1 h -1 -1 v -7 -7 h -1 -1 v 10 10 h -1 -1 v -5 -5 h -1 -1 v 14 14 h -1 -1 v 18 18 h -1 -1 v -9.57143 -9.57143 l -1.4286,-1.42857 L 1322.1429,534 H 1321.5714 1321 v 24 24 h -1 -1 v 2 2 h -1 -1 v -18 -18 h -1 -1 v 13 13 h -0.5714 -0.5715 l -1.4285,-1.42857 L 1311,573.14286 V 568.57143 564 h -1 -1 v -4 -4 h -1 -1 v -3 -3 h -1 -1 v -4 -4 h -1 -1 v 19 19 h -1 -1 v -9 -9 h -1 -1 v 18 18 h -1 -1 v 6 6 h -1 -1 v -26 -26 h -1 -1 v -15 -15 h -1 -1 v 7 7 h -1 -1 v 10 10 h -1 -1 v 22 22 h -1 -1 v 16 16 h -1 -1 v -35 -35 h -2 -2 v -10 -10 h -1 -1 v 15 15 h -1 -1 v 2 2 h -1 -1 v 4 4 h -1 -1 v -9 -9 h -1 -1 v -9 -9 h -1 -1 v 6 6 h -1 -1 v -24 -24 h -1 -1 v 21 21 h -1 -1 v -24 -24 h -1 -1 v 3 3 h -1 -1 v 9 9 h -1 -1 v 3.57143 3.57143 l -1.4286,1.42857 L 1252.1429,546 H 1251.5714 1251 v -5 -5 h -1 -1 v 11 11 h -1 -1 v -21 -21 h -1 -1 v -20 -20 h -1 -1 v 7 7 h -1 -1 v 13 13 h -1 -1 v 10 10 h -1 -1 v -11 -11 h -1 -1 v -2 -2 h -1 -1 v 39 39 h -1 -1 v -40 -40 h -1 -1 v -4 -4 h -1 -1 v 34 34 h -1 -1 v 45 45 h -1 -1 v -18 -18 h -1 -1 v -10 -10 h -1 -1 v 17 17 h -1 -1 v -92 -92 h -1 -1 v 4 4 h -1 -1 v -5 -5 h -1 -1 v 14.57143 14.57143 l -1.4286,1.42857 L 1208.1429,482 H 1207.5714 1207 v -8 -8 h -1 -1 v 20 20 h -1 -1 v 32 32 h -1 -1 v -40 -40 h -1 -1 v 8 8 h -1 -1 v -16 -16 h -1 -1 v 23 23 h -1 -1 v -13 -13 h -1 -1 v 30 30 h -1 -1 v -24 -24 h -1 -1 v -17 -17 h -1 -1 v 2 2 h -1 -1 v 7 7 h -1 -1 v 4 4 h -1 -1 v 3 3 h -1 -1 v 16 16 h -1 -1 v 8 8 h -2 -2 v -6 -6 h -1 -1 v -3 -3 h -1 -1 v 24 24 h -1 -1 v -7 -7 h -1 -1 v 10 10 h -1 -1 v -3 -3 h -1 -1 v 1 1 h -1 -1 v -29 -29 h -1 -1 v 3 3 h -1 -1 v 7 7 h -1 -1 v 5 5 h -1 -1 v 6 6 h -1 -1 v -10 -10 h -1 -1 v -19 -19 h -1 -1 v 23 23 h -1 -1 v 10 10 h -1 -1 v -10 -10 h -1 -1 v 8 8 h -1 -1 v -1 -1 h -1 -1 v 6 6 h -1 -1 v 25 25 h -1 -1 v -23 -23 h -1 -1 v -8 -8 h -1 -1 v -12 -12 h -1 -1 v -3 -3 h -1 -1 v -18 -18 h -1 -1 v -17 -17 h -1 -1 v 20 20 h -1 -1 v 20 20 h -1 -1 v -12 -12 h -1 -1 v -4 -4 h -1 -1 v -3 -3 h -1 -1 v 23 23 h -1 -1 v 27 27 h -1 -1 v 3 3 h -1 -1 v -18 -18 h -1 -1 v 6 6 h -1 -1 v 9 9 h -1 -1 v -22 -22 h -1 -1 v 11.57143 11.57143 l -1.4286,1.42857 L 1090.1429,594 H 1089.5714 1089 v -20 -20 h -1 -1 v 4 4 h -1 -1 v 14 14 h -1 -1 v -24 -24 h -1 -1 v 8 8 h -1 -1 v -5 -5 h -1 -1 v -35 -35 h -1 -1 v 2 2 h -1 -1 v 15 15 h -1 -1 v 18 18 h -1 -1 v -9 -9 h -1 -1 v -8 -8 h -1 -1 v -15 -15 h -1 -1 v 8 8 h -1 -1 v -4 -4 h -1 -1 v 4 4 h -1 -1 v 38 38 h -1 -1 v -10 -10 h -1 -1 v 4 4 h -1 -1 v -9 -9 h -1 -1 v 21 21 h -1 -1 v -16 -16 h -1 -1 v 47 47 h -0.5714 -0.5715 l -1.4285,-1.42857 L 1041,647.14286 V 639.57143 632 h -1 -1 v -46 -46 h -1 -1 v 17 17 h -1 -1 v -27 -27 h -1 -1 v -20 -20 h -1 -1 v 27 27 h -1 -1 v -21 -21 h -1 -1 v 16 16 h -1 -1 v 42 42 h -1 -1 v -18 -18 h -1 -1 v 4 4 h -1 -1 v -10 -10 h -1 -1 v -28 -28 h -1 -1 v 27 27 h -1 -1 v 11 11 h -1 -1 v -2 -2 h -1 -1 v 4 4 h -1 -1 v -11 -11 h -2 -2 v -18 -18 h -1 -1 v 17 17 h -1 -1 v -30 -30 h -1 -1 v 41 41 h -1 -1 v -10 -10 h -1 -1 v -10 -10 h -1 -1 v 21 21 h -1 -1 v -34 -34 h -1 -1 v -6 -6 h -1 -1 v 11 11 h -1 -1 v 43 43 h -1 -1 v 8 8 h -1 -1 v 19 19 h -1 -1 v 4 4 h -1 -1 v -34 -34 h -1 -1 v -67 -67 h -1 -1 v -6 -6 h -0.57143 -0.57143 l -1.42857,1.42857 L 967,462.85714 V 471.42857 480 h -1 -1 v 15 15 h -1 -1 v 17 17 h -1 -1 v -10 -10 h -1 -1 v -13 -13 h -1 -1 v 18 18 h -1 -1 v 15 15 h -2 -2 v -4 -4 h -1 -1 v -5 -5 h -1 -1 v -11 -11 h -1 -1 v -2 -2 h -1 -1 v -33 -33 h -1 -1 v -4.57143 -4.57143 L 939.57143,443.42857 938.14286,442 H 937.57143 937 v 3 3 h -1 -1 v -3 -3 h -1 -1 v 12 12 h -1 -1 v 4 4 h -1 -1 v 2 2 h -1 -1 v 4 4 h -1 -1 v -4 -4 h -1 -1 v 17 17 h -1 -1 v 12 12 h -1 -1 v 16 16 h -1 -1 v -16 -16 h -1 -1 v 4 4 h -1 -1 v -38 -38 h -1 -1 v -8 -8 h -1 -1 v 14 14 h -1 -1 v 14.77924 14.77924 L 905,511 l -2,1.44152 V 525.22076 538 h -1 -1 v -5 -5 h -1 -1 v 22 22 h -1 -1 V 546.42857 520.85714 L 895.57143,519.42857 894.14286,518 H 893.57143 893 v 11 11 h -1 -1 v -8 -8 h -1 -1 v 6 6 h -1 -1 v 6 6 h -1 -1 v -13 -13 h -1 -1 v 10 10 h -1 -1 v 2 2 h -1 -1 v -21 -21 h -1 -1 v 23 23 h -1 -1 v -12 -12 h -1 -1 v 20 20 h -1 -1 v 6 6 h -1 -1 v -21 -21 h -1 -1 v 10 10 h -1 -1 v 5 5 h -1 -1 v -8 -8 h -1 -1 v 11 11 h -1 -1 v 21 21 h -1 -1 v 1.57143 1.57143 l -1.42857,1.42857 L 854.14286,620 H 853.57143 853 v -27 -27 h -1 -1 v -5 -5 h -1 -1 v -9 -9 h -1 -1 v 22 22 h -1 -1 v -25 -25 h -1 -1 V 513.42857 494.85714 L 841.57143,493.42857 840.14286,492 H 839.57143 839 v 9 9 h -1 -1 v -2 -2 h -1 -1 v 13 13 h -1 -1 v -2 -2 h -1 -1 v 8 8 h -1 -1 v -6 -6 h -1 -1 v -4 -4 h -1 -1 v 28 28 h -1 -1 v -17 -17 h -1 -1 v 8 8 h -1 -1 v -10 -10 h -1 -1 v -10 -10 h -1 -1 v -4 -4 h -1 -1 v 21 21 h -0.54545 -0.54546 L 809.45455,553.54545 807,551.09091 V 547.54545 544 h -1 -1 v 6 6 h -1 -1 v 31 31 h -1 -1 v -14 -14 h -1 -1 v -5 -5 h -1 -1 v 19 19 h -1 -1 v -22 -22 h -1 -1 v 11 11 h -1 -1 v -35 -35 h -1 -1 v 34 34 h -1 -1 v -27 -27 h -1 -1 v 2 2 h -0.57143 -0.57143 L 782.42857,542.57143 781,541.14286 V 531.57143 522 h -1 -1 v 10 10 h -1 -1 v 8 8 h -1 -1 v -19 -19 h -1 -1 v -10 -10 h -1 -1 v -13 -13 h -1 -1 v 19 19 h -1 -1 v 24 24 h -0.57143 -0.57143 L 764.42857,558.57143 763,557.14286 V 532.57143 508 h -1 -1 v -22 -22 h -1 -1 v -4 -4 h -1 -1 v 2 2 h -1 -1 v -3 -3 h -1 -1 v -2 -2 h -1 -1 v -9 -9 h -1 -1 v 7 7 h -1 -1 v 14 14 h -1 -1 v 12 12 h -1 -1 v -5 -5 h -2 -2 v 35 35 h -1 -1 v 27 27 h -1 -1 v -25 -25 h -1 -1 v 15 15 h -1 -1 v 3 3 h -1 -1 v -70 -70 h -0.57143 -0.57143 l -1.42857,1.42857 L 725,460.85714 V 476.42857 492 h -1 -1 v 13 13 h -1 -1 v -4 -4 h -1 -1 v 23 23 h -1 -1 v -16 -16 h -1 -1 v 10 10 h -1 -1 v -6 -6 h -1 -1 v 17 17 h -1 -1 v 6 6 h -1 -1 v -14 -14 h -1 -1 v 25 25 h -1 -1 v -5 -5 h -1 -1 v -15 -15 h -1 -1 v -28 -28 h -1 -1 v -8 -8 h -1 -1 v 18 18 h -1 -1 v -8 -8 h -2 -2 v 6 6 h -1 -1 v 29 29 h -1 -1 v -12 -12 h -1 -1 v -3 -3 h -1 -1 v 4 4 h -1 -1 v 3 3 h -1 -1 v 5 5 h -1 -1 v -9 -9 h -1 -1 v -4 -4 h -2 -2 v 2 2 h -1 -1 v -14 -14 h -2 -2 v 2 2 h -1 -1 v 2 2 h -1 -1 v 18 18 h -1 -1 v -7 -7 h -1 -1 v -10 -10 h -1 -1 v 18 18 h -2 -2 v -6 -6 h -1 -1 v 18 18 h -1 -1 v -23 -23 h -1 -1 v -2 -2 h -1 -1 v 18 18 h -1 -1 v -37 -37 h -1 -1 v 19 19 h -1 -1 v -11 -11 h -1 -1 v 12.57143 12.57143 l -1.42857,1.42857 L 630.14286,548 H 629.57143 629 v -21 -21 h -1 -1 v 27 27 h -1 -1 v -25 -25 h -1 -1 v 3 3 h -1 -1 v 4 4 h -1 -1 v 20 20 h -1 -1 v 15 15 h -1 -1 v 45 45 h -1 -1 z"
       id="path237" />
  </g>
</svg>
